#!OML:ASF H:\Terrain\Patient Classification 1\Takeo\Monday\TakeoMonday.ASF
:FULLY-SPECIFIED
:DEGREES
213
root 9.98518 17.1548 6.8608 -4.61239 6.05199 0.494722
lowerback 4.6287 -2.8975 -1.21862
upperback 1.62004 -3.89088 1.98848
thorax -0.704916 -1.95441 2.91851
lowerneck -11.2858 5.31278 1.19794
upperneck 6.17864 7.33795 -4.41631
head 4.32229 3.42741 -1.16317
rclavicle -3.38804e-014 1.43125e-014
rhumerus -56.7659 -26.3103 -56.9275
rradius 9.4772
rwrist 17.6174
rhand -16.8968 13.4664
rfingers 7.12502
rthumb 9.33493 -16.307
lclavicle -3.38804e-014 1.43125e-014
lhumerus -34.1718 -3.59754 89.9831
lradius 66.4483
lwrist 26.9799
lhand -26.8506 11.6995
lfingers 7.12502
lthumb -0.275792 41.6791
rfemur -25.1514 5.03257 21.2098
rtibia 32.581
rfoot -9.96795 -12.9601
rtoes -8.29427
lfemur 21.9117 -2.75485 -25.6133
ltibia 23.435
lfoot -9.88021 4.226
ltoes -24.0094
214
root 9.98338 17.1462 7.06803 -4.8201 5.82906 0.434852
lowerback 4.71025 -2.91718 -1.13018
upperback 1.62003 -3.91305 2.00713
thorax -0.753713 -1.96474 2.89424
lowerneck -11.3173 5.30504 1.26271
upperneck 6.581 7.34882 -4.64023
head 4.02677 3.4078 -1.12105
rclavicle -6.41453e-014 1.11319e-014
rhumerus -56.5466 -26.4477 -56.9693
rradius 9.55259
rwrist 17.8043
rhand -17.0748 13.1461
rfingers 7.12502
rthumb 9.16312 -16.6348
lclavicle -6.41453e-014 1.11319e-014
lhumerus -34.6412 -3.03553 90.0274
lradius 64.9897
lwrist 26.3841
lhand -26.7503 11.8826
lfingers 7.12502
lthumb -0.17895 41.8623
rfemur -24.8314 5.01225 21.5262
rtibia 33.7642
rfoot -10.1158 -12.6359
rtoes -7.12998
lfemur 21.2841 -2.32488 -25.3068
ltibia 26.2221
lfoot -8.61898 3.80936
ltoes -26.8509
215
root 9.9732 17.1441 7.26363 -5.0116 5.47277 0.183295
lowerback 4.80833 -2.86306 -0.977765
upperback 1.66783 -3.83334 2.09956
thorax -0.767509 -1.92507 2.90464
lowerneck -11.2572 5.28413 1.3977
upperneck 6.45608 7.30992 -4.79895
head 3.98886 3.38665 -1.19637
rclavicle 1.55673e-014 -9.54166e-015
rhumerus -56.3199 -26.6479 -56.9701
rradius 9.74193
rwrist 17.9679
rhand -17.1203 13.2313
rfingers 7.12502
rthumb 9.11927 -16.5516
lclavicle 1.55673e-014 -9.54166e-015
lhumerus -35.0063 -2.51421 90.1088
lradius 63.4691
lwrist 25.9316
lhand -26.3863 12.3686
lfingers 7.12502
lthumb 0.172638 42.3483
rfemur -24.3923 5.18594 22.1223
rtibia 34.7052
rfoot -10.4108 -12.442
rtoes -5.35884
lfemur 20.5012 -1.68669 -24.6174
ltibia 29.0356
lfoot -7.09436 3.13917
ltoes -28.4564
216
root 9.95721 17.1424 7.45042 -5.05458 4.96596 -0.471139
lowerback 4.83057 -2.79104 -0.419305
upperback 1.67795 -3.70903 2.28388
thorax -0.799993 -1.86164 2.77748
lowerneck -11.1971 5.26244 1.51267
upperneck 5.87461 7.24208 -4.76693
head 4.2256 3.37675 -1.34966
rclavicle 6.79595e-015 -8.74653e-015
rhumerus -55.8848 -26.9021 -57.075
rradius 9.83684
rwrist 17.992
rhand -17.0433 13.2413
rfingers 7.12502
rthumb 9.19357 -16.5383
lclavicle 6.79595e-015 -8.74653e-015
lhumerus -35.3172 -1.84114 90.0626
lradius 61.8614
lwrist 25.6668
lhand -25.1213 13.6003
lfingers 7.12502
lthumb 1.39445 43.5755
rfemur -24.1245 5.76189 23.1218
rtibia 35.5005
rfoot -10.952 -12.2302
rtoes -1.96068
lfemur 19.373 -0.968443 -23.3922
ltibia 31.9119
lfoot -5.08286 2.63426
ltoes -27.3346
217
root 9.94659 17.1418 7.63867 -5.15361 4.60442 -0.814365
lowerback 5.03499 -2.73403 -0.0779966
upperback 1.57284 -3.61101 2.37146
thorax -1.04236 -1.80927 2.68729
lowerneck -10.8808 5.19146 1.4096
upperneck 5.59315 7.13637 -4.62201
head 4.04488 3.33867 -1.29986
rclavicle -1.93007e-014 2.38542e-015
rhumerus -55.6719 -27.0297 -56.9809
rradius 10.1332
rwrist 18.1472
rhand -16.7828 12.3891
rfingers 7.12502
rthumb 9.44489 -17.3792
lclavicle -1.93007e-014 2.38542e-015
lhumerus -35.8209 -1.25914 90.0496
lradius 60.1079
lwrist 25.5163
lhand -23.8908 14.8023
lfingers 7.12502
lthumb 2.58278 44.7664
rfemur -23.6554 6.30316 23.7311
rtibia 36.1305
rfoot -11.5586 -11.9097
rtoes 1.10925
lfemur 18.1638 -0.497838 -22.6068
ltibia 34.8158
lfoot -2.53712 2.52892
ltoes -26.1154
